# xmcd CD database file
#
# Track frame offsets:
#	150
#	9136
#	29644
#	39871
#	52342
#	67262
#	79156
#	97311
#	108256
#	122115
#	130641
#	150761
#	163554
#	173884
#	187812
#	196678
#	216877
#	230725
#	244137
#	257910
#
# Disc length: 3635 seconds
#
# Revision: 0
# Processed by: cddbd v1.5.2PL0 Copyright (c) Steve Scherf et al.
# Submitted via: Feurio! 1.68 - http://www.feurio.com
#
DISCID=0e0e3114
DTITLE=Howard Armstrong et al - Louie Bluie [Film Soundtrack]
DYEAR=1900
DGENRE=Blues
TTITLE0=New State Street Rag
TTITLE1=Nothing In This Wide World For Me
TTITLE2=That'll Will Never Happen No More
TTITLE3=Ted's Stomp
TTITLE4=My Four Reasons
TTITLE5=Barushka
TTITLE6=38 Pistol Blues
TTITLE7=Darktown Strutters' Ball
TTITLE8=When He Calls Me I Will Answer
TTITLE9=Vine Street Drag
TTITLE10=My Gal Sal Medley
TTITLE11=State Street Rag
TTITLE12=Du, Du Liechst Mir Im Herzen
TTITLE13=Railroad Blues
TTITLE14=Cacklin' Hen
TTITLE15=Wrap Your Troubles In Dreams
TTITLE16=The Tennessee Chocolate Drops - Vine Street Rag
TTITLE17=Sleepy John Estes with Yank Rachell - The Girl I Love
TTITLE18=Sleepy John Estes with Yank Rachell - Milk Cow Blues
TTITLE19=Yank Rachell - When You Feel Down And Out
EXTD=#01-16 originally on Arhoolie LP 1095\r\n#17-20 bonus tracks of early 
EXTD=recordings by Armstrong and Yank Rachell\r\n
EXTT0=
EXTT1=
EXTT2=
EXTT3=1934
EXTT4=
EXTT5=
EXTT6=
EXTT7=
EXTT8=
EXTT9=
EXTT10=
EXTT11=1934
EXTT12=
EXTT13=
EXTT14=
EXTT15=
EXTT16=1930
EXTT17=1929
EXTT18=1930
EXTT19=1938
PLAYORDER=
